<svg id="svg" version="1.1" xmlns="http://www.w3.org/2000/svg" xmlns:xlink="http://www.w3.org/1999/xlink" width="400" height="400" viewBox="0, 0, 400,400"><g id="svgg"><path id="path0" d="M197.600 77.600 C 197.600 78.040,197.420 78.400,197.200 78.400 C 196.980 78.400,196.800 78.684,196.800 79.031 C 196.800 79.379,196.080 80.354,195.200 81.200 C 194.320 82.046,193.600 83.021,193.600 83.369 C 193.600 83.716,193.420 84.000,193.200 84.000 C 192.980 84.000,192.800 84.360,192.800 84.800 C 192.800 85.240,192.620 85.600,192.400 85.600 C 192.180 85.600,192.000 85.960,192.000 86.400 C 192.000 86.840,191.820 87.200,191.600 87.200 C 191.380 87.200,191.200 87.560,191.200 88.000 C 191.200 88.440,191.020 88.800,190.800 88.800 C 190.580 88.800,190.400 89.160,190.400 89.600 C 190.400 90.040,190.220 90.400,190.000 90.400 C 189.780 90.400,189.600 90.720,189.600 91.112 C 189.600 91.503,189.240 92.083,188.800 92.400 C 188.360 92.717,188.000 93.297,188.000 93.688 C 188.000 94.080,187.820 94.400,187.600 94.400 C 187.380 94.400,187.200 94.760,187.200 95.200 C 187.200 95.640,187.020 96.000,186.800 96.000 C 186.580 96.000,186.400 96.320,186.400 96.712 C 186.400 97.103,186.040 97.683,185.600 98.000 C 185.160 98.317,184.800 98.897,184.800 99.288 C 184.800 99.680,184.620 100.000,184.400 100.000 C 184.180 100.000,184.000 100.360,184.000 100.800 C 184.000 101.240,183.820 101.600,183.600 101.600 C 183.380 101.600,183.200 101.960,183.200 102.400 C 183.200 102.840,183.020 103.200,182.800 103.200 C 182.580 103.200,182.400 103.560,182.400 104.000 C 182.400 104.440,182.220 104.800,182.000 104.800 C 181.780 104.800,181.600 105.120,181.600 105.512 C 181.600 105.903,181.240 106.483,180.800 106.800 C 180.360 107.117,180.000 107.657,180.000 108.000 C 180.000 108.343,179.640 108.883,179.200 109.200 C 178.760 109.517,178.400 110.097,178.400 110.488 C 178.400 110.880,178.220 111.200,178.000 111.200 C 177.780 111.200,177.600 111.560,177.600 112.000 C 177.600 112.440,177.420 112.800,177.200 112.800 C 176.980 112.800,176.800 113.160,176.800 113.600 C 176.800 114.040,176.620 114.400,176.400 114.400 C 176.180 114.400,176.000 114.940,176.000 115.600 C 176.000 116.260,175.820 116.800,175.600 116.800 C 175.380 116.800,175.200 117.160,175.200 117.600 C 175.200 118.040,175.020 118.400,174.800 118.400 C 174.580 118.400,174.400 118.760,174.400 119.200 C 174.400 119.640,174.220 120.000,174.000 120.000 C 173.780 120.000,173.600 120.320,173.600 120.712 C 173.600 121.103,173.240 121.683,172.800 122.000 C 172.360 122.317,172.000 122.897,172.000 123.288 C 172.000 123.680,171.820 124.000,171.600 124.000 C 171.380 124.000,171.200 124.360,171.200 124.800 C 171.200 125.240,171.020 125.600,170.800 125.600 C 170.580 125.600,170.400 125.960,170.400 126.400 C 170.400 126.840,170.220 127.200,170.000 127.200 C 169.780 127.200,169.600 127.560,169.600 128.000 C 169.600 128.440,169.420 128.800,169.200 128.800 C 168.980 128.800,168.800 129.160,168.800 129.600 C 168.800 130.040,168.620 130.400,168.400 130.400 C 168.180 130.400,168.000 130.760,168.000 131.200 C 168.000 131.640,167.820 132.000,167.600 132.000 C 167.380 132.000,167.200 132.288,167.200 132.640 C 167.200 132.991,166.660 133.783,166.000 134.400 C 165.340 135.017,164.800 135.809,164.800 136.160 C 164.800 136.512,164.620 136.800,164.400 136.800 C 164.180 136.800,164.000 137.160,164.000 137.600 C 164.000 138.040,163.820 138.400,163.600 138.400 C 163.380 138.400,163.200 138.760,163.200 139.200 C 163.200 139.640,163.020 140.000,162.800 140.000 C 162.580 140.000,162.400 140.360,162.400 140.800 C 162.400 141.240,162.220 141.600,162.000 141.600 C 161.780 141.600,161.600 141.960,161.600 142.400 C 161.600 142.840,161.420 143.200,161.200 143.200 C 160.980 143.200,160.800 143.560,160.800 144.000 C 160.800 144.440,160.620 144.800,160.400 144.800 C 160.180 144.800,160.000 145.160,160.000 145.600 C 160.000 146.040,159.820 146.400,159.600 146.400 C 159.380 146.400,159.200 146.760,159.200 147.200 C 159.200 147.640,159.020 148.000,158.800 148.000 C 158.580 148.000,158.400 148.320,158.400 148.712 C 158.400 149.103,158.040 149.683,157.600 150.000 C 157.160 150.317,156.800 150.897,156.800 151.288 C 156.800 151.680,156.620 152.000,156.400 152.000 C 156.180 152.000,156.000 152.360,156.000 152.800 C 156.000 153.240,155.820 153.600,155.600 153.600 C 155.380 153.600,155.200 153.960,155.200 154.400 C 155.200 154.840,155.020 155.200,154.800 155.200 C 154.580 155.200,154.400 155.560,154.400 156.000 C 154.400 156.440,154.220 156.800,154.000 156.800 C 153.780 156.800,153.600 157.160,153.600 157.600 C 153.600 158.040,153.420 158.400,153.200 158.400 C 152.980 158.400,152.800 158.760,152.800 159.200 C 152.800 159.640,152.620 160.000,152.400 160.000 C 152.180 160.000,152.000 160.360,152.000 160.800 C 152.000 161.240,151.820 161.600,151.600 161.600 C 151.380 161.600,151.200 161.960,151.200 162.400 C 151.200 162.840,151.020 163.200,150.800 163.200 C 150.580 163.200,150.400 163.520,150.400 163.912 C 150.400 164.303,150.040 164.883,149.600 165.200 C 149.160 165.517,148.800 166.097,148.800 166.488 C 148.800 166.880,148.620 167.200,148.400 167.200 C 148.180 167.200,148.000 167.560,148.000 168.000 C 148.000 168.440,147.820 168.800,147.600 168.800 C 147.380 168.800,147.200 169.160,147.200 169.600 C 147.200 170.040,147.020 170.400,146.800 170.400 C 146.580 170.400,146.400 170.760,146.400 171.200 C 146.400 171.640,146.220 172.000,146.000 172.000 C 145.780 172.000,145.600 172.360,145.600 172.800 C 145.600 173.240,145.420 173.600,145.200 173.600 C 144.980 173.600,144.800 173.960,144.800 174.400 C 144.800 174.840,144.620 175.200,144.400 175.200 C 144.180 175.200,144.000 175.560,144.000 176.000 C 144.000 176.440,143.820 176.800,143.600 176.800 C 143.380 176.800,143.200 177.120,143.200 177.512 C 143.200 177.903,142.840 178.483,142.400 178.800 C 141.960 179.117,141.600 179.625,141.600 179.928 C 141.600 180.231,141.060 180.983,140.400 181.600 C 139.740 182.217,139.200 183.009,139.200 183.360 C 139.200 183.712,139.020 184.000,138.800 184.000 C 138.580 184.000,138.400 184.360,138.400 184.800 C 138.400 185.240,138.220 185.600,138.000 185.600 C 137.780 185.600,137.600 185.960,137.600 186.400 C 137.600 186.840,137.420 187.200,137.200 187.200 C 136.980 187.200,136.800 187.560,136.800 188.000 C 136.800 188.440,136.620 188.800,136.400 188.800 C 136.180 188.800,136.000 189.160,136.000 189.600 C 136.000 190.040,135.820 190.400,135.600 190.400 C 135.380 190.400,135.200 190.720,135.200 191.112 C 135.200 191.503,134.840 192.083,134.400 192.400 C 133.960 192.717,133.600 193.297,133.600 193.688 C 133.600 194.080,133.420 194.400,133.200 194.400 C 132.980 194.400,132.800 194.760,132.800 195.200 C 132.800 195.640,132.620 196.000,132.400 196.000 C 132.180 196.000,132.000 196.360,132.000 196.800 C 132.000 197.240,131.820 197.600,131.600 197.600 C 131.380 197.600,131.200 197.960,131.200 198.400 C 131.200 198.840,131.020 199.200,130.800 199.200 C 130.580 199.200,130.400 199.560,130.400 200.000 C 130.400 200.440,130.220 200.800,130.000 200.800 C 129.780 200.800,129.600 201.160,129.600 201.600 C 129.600 202.040,129.420 202.400,129.200 202.400 C 128.980 202.400,128.800 202.760,128.800 203.200 C 128.800 203.640,128.620 204.000,128.400 204.000 C 128.180 204.000,128.000 204.320,128.000 204.712 C 128.000 205.103,127.640 205.683,127.200 206.000 C 126.760 206.317,126.400 206.897,126.400 207.288 C 126.400 207.680,126.220 208.000,126.000 208.000 C 125.780 208.000,125.600 208.360,125.600 208.800 C 125.600 209.240,125.420 209.600,125.200 209.600 C 124.980 209.600,124.800 209.960,124.800 210.400 C 124.800 210.840,124.620 211.200,124.400 211.200 C 124.180 211.200,124.000 211.560,124.000 212.000 C 124.000 212.440,123.820 212.800,123.600 212.800 C 123.380 212.800,123.200 213.160,123.200 213.600 C 123.200 214.040,123.020 214.400,122.800 214.400 C 122.580 214.400,122.400 214.760,122.400 215.200 C 122.400 215.640,122.220 216.000,122.000 216.000 C 121.780 216.000,121.600 216.360,121.600 216.800 C 121.600 217.240,121.420 217.600,121.200 217.600 C 120.980 217.600,120.800 217.960,120.800 218.400 C 120.800 218.840,120.620 219.200,120.400 219.200 C 120.180 219.200,120.000 219.520,120.000 219.912 C 120.000 220.303,119.640 220.883,119.200 221.200 C 118.760 221.517,118.400 222.057,118.400 222.400 C 118.400 222.743,118.040 223.283,117.600 223.600 C 117.160 223.917,116.800 224.497,116.800 224.888 C 116.800 225.280,116.620 225.600,116.400 225.600 C 116.180 225.600,116.000 225.960,116.000 226.400 C 116.000 226.840,115.820 227.200,115.600 227.200 C 115.380 227.200,115.200 227.560,115.200 228.000 C 115.200 228.440,115.020 228.800,114.800 228.800 C 114.580 228.800,114.400 229.160,114.400 229.600 C 114.400 230.040,114.220 230.400,114.000 230.400 C 113.780 230.400,113.600 230.760,113.600 231.200 C 113.600 231.640,113.420 232.000,113.200 232.000 C 112.980 232.000,112.800 232.360,112.800 232.800 C 112.800 233.240,112.620 233.600,112.400 233.600 C 112.180 233.600,112.000 233.920,112.000 234.312 C 112.000 234.703,111.640 235.283,111.200 235.600 C 110.760 235.917,110.400 236.497,110.400 236.888 C 110.400 237.280,110.220 237.600,110.000 237.600 C 109.780 237.600,109.600 237.960,109.600 238.400 C 109.600 238.840,109.420 239.200,109.200 239.200 C 108.980 239.200,108.800 239.560,108.800 240.000 C 108.800 240.440,108.620 240.800,108.400 240.800 C 108.180 240.800,108.000 241.160,108.000 241.600 C 108.000 242.040,107.820 242.400,107.600 242.400 C 107.380 242.400,107.200 242.760,107.200 243.200 C 107.200 243.640,107.020 244.000,106.800 244.000 C 106.580 244.000,106.400 244.360,106.400 244.800 C 106.400 245.240,106.220 245.600,106.000 245.600 C 105.780 245.600,105.600 245.888,105.600 246.240 C 105.600 246.591,105.060 247.383,104.400 248.000 C 103.740 248.617,103.200 249.409,103.200 249.760 C 103.200 250.112,103.020 250.400,102.800 250.400 C 102.580 250.400,102.400 250.760,102.400 251.200 C 102.400 251.640,102.220 252.000,102.000 252.000 C 101.780 252.000,101.600 252.360,101.600 252.800 C 101.600 253.240,101.420 253.600,101.200 253.600 C 100.980 253.600,100.800 253.960,100.800 254.400 C 100.800 254.840,100.620 255.200,100.400 255.200 C 100.180 255.200,100.000 255.560,100.000 256.000 C 100.000 256.440,99.820 256.800,99.600 256.800 C 99.380 256.800,99.200 257.160,99.200 257.600 C 99.200 258.040,99.020 258.400,98.800 258.400 C 98.580 258.400,98.400 258.760,98.400 259.200 C 98.400 259.640,98.220 260.000,98.000 260.000 C 97.780 260.000,97.600 260.360,97.600 260.800 C 97.600 261.240,97.420 261.600,97.200 261.600 C 96.980 261.600,96.800 261.960,96.800 262.400 C 96.800 262.840,96.620 263.200,96.400 263.200 C 96.148 263.200,96.000 265.867,96.000 270.400 C 96.000 274.933,96.148 277.600,96.400 277.600 C 96.620 277.600,96.800 278.280,96.800 279.112 C 96.800 280.165,97.043 280.798,97.600 281.200 C 98.040 281.517,98.400 282.097,98.400 282.488 C 98.400 282.904,98.696 283.200,99.112 283.200 C 99.503 283.200,100.083 283.560,100.400 284.000 C 101.312 285.265,299.200 285.265,299.200 284.000 C 299.200 283.560,299.380 283.200,299.600 283.200 C 299.820 283.200,300.000 282.840,300.000 282.400 C 300.000 281.960,300.180 281.600,300.400 281.600 C 300.620 281.600,300.800 281.240,300.800 280.800 C 300.800 280.360,300.980 280.000,301.200 280.000 C 301.420 280.000,301.600 279.640,301.600 279.200 C 301.600 278.760,301.780 278.400,302.000 278.400 C 302.220 278.400,302.400 277.860,302.400 277.200 C 302.400 276.540,302.580 276.000,302.800 276.000 C 303.022 276.000,303.200 274.933,303.200 273.600 C 303.200 272.267,303.378 271.200,303.600 271.200 C 303.840 271.200,304.000 269.600,304.000 267.200 C 304.000 264.800,303.840 263.200,303.600 263.200 C 303.380 263.200,303.200 262.840,303.200 262.400 C 303.200 261.960,303.020 261.600,302.800 261.600 C 302.580 261.600,302.400 261.240,302.400 260.800 C 302.400 260.360,302.220 260.000,302.000 260.000 C 301.780 260.000,301.600 259.640,301.600 259.200 C 301.600 258.760,301.420 258.400,301.200 258.400 C 300.980 258.400,300.800 258.040,300.800 257.600 C 300.800 257.160,300.620 256.800,300.400 256.800 C 300.180 256.800,300.000 256.440,300.000 256.000 C 300.000 255.560,299.820 255.200,299.600 255.200 C 299.380 255.200,299.200 254.840,299.200 254.400 C 299.200 253.960,299.020 253.600,298.800 253.600 C 298.580 253.600,298.400 253.240,298.400 252.800 C 298.400 252.360,298.220 252.000,298.000 252.000 C 297.780 252.000,297.600 251.640,297.600 251.200 C 297.600 250.760,297.420 250.400,297.200 250.400 C 296.980 250.400,296.800 250.112,296.800 249.760 C 296.800 249.409,296.260 248.617,295.600 248.000 C 294.940 247.383,294.400 246.591,294.400 246.240 C 294.400 245.888,294.220 245.600,294.000 245.600 C 293.780 245.600,293.600 245.240,293.600 244.800 C 293.600 244.360,293.420 244.000,293.200 244.000 C 292.980 244.000,292.800 243.640,292.800 243.200 C 292.800 242.760,292.620 242.400,292.400 242.400 C 292.180 242.400,292.000 242.040,292.000 241.600 C 292.000 241.160,291.820 240.800,291.600 240.800 C 291.380 240.800,291.200 240.440,291.200 240.000 C 291.200 239.560,291.020 239.200,290.800 239.200 C 290.580 239.200,290.400 238.840,290.400 238.400 C 290.400 237.960,290.220 237.600,290.000 237.600 C 289.780 237.600,289.600 237.280,289.600 236.888 C 289.600 236.497,289.240 235.917,288.800 235.600 C 288.360 235.283,288.000 234.703,288.000 234.312 C 288.000 233.920,287.820 233.600,287.600 233.600 C 287.380 233.600,287.200 233.240,287.200 232.800 C 287.200 232.360,287.020 232.000,286.800 232.000 C 286.580 232.000,286.400 231.640,286.400 231.200 C 286.400 230.760,286.220 230.400,286.000 230.400 C 285.780 230.400,285.600 230.040,285.600 229.600 C 285.600 229.160,285.420 228.800,285.200 228.800 C 284.980 228.800,284.800 228.440,284.800 228.000 C 284.800 227.560,284.620 227.200,284.400 227.200 C 284.180 227.200,284.000 226.840,284.000 226.400 C 284.000 225.960,283.820 225.600,283.600 225.600 C 283.380 225.600,283.200 225.280,283.200 224.888 C 283.200 224.497,282.840 223.917,282.400 223.600 C 281.960 223.283,281.600 222.743,281.600 222.400 C 281.600 222.057,281.240 221.517,280.800 221.200 C 280.360 220.883,280.000 220.303,280.000 219.912 C 280.000 219.520,279.820 219.200,279.600 219.200 C 279.380 219.200,279.200 218.840,279.200 218.400 C 279.200 217.960,279.020 217.600,278.800 217.600 C 278.580 217.600,278.400 217.240,278.400 216.800 C 278.400 216.360,278.220 216.000,278.000 216.000 C 277.780 216.000,277.600 215.640,277.600 215.200 C 277.600 214.760,277.420 214.400,277.200 214.400 C 276.980 214.400,276.800 214.040,276.800 213.600 C 276.800 213.160,276.620 212.800,276.400 212.800 C 276.180 212.800,276.000 212.440,276.000 212.000 C 276.000 211.560,275.820 211.200,275.600 211.200 C 275.380 211.200,275.200 210.840,275.200 210.400 C 275.200 209.960,275.020 209.600,274.800 209.600 C 274.580 209.600,274.400 209.240,274.400 208.800 C 274.400 208.360,274.220 208.000,274.000 208.000 C 273.780 208.000,273.600 207.680,273.600 207.288 C 273.600 206.897,273.240 206.317,272.800 206.000 C 272.360 205.683,272.000 205.103,272.000 204.712 C 272.000 204.320,271.820 204.000,271.600 204.000 C 271.380 204.000,271.200 203.640,271.200 203.200 C 271.200 202.760,271.020 202.400,270.800 202.400 C 270.580 202.400,270.400 202.040,270.400 201.600 C 270.400 201.160,270.220 200.800,270.000 200.800 C 269.780 200.800,269.600 200.440,269.600 200.000 C 269.600 199.560,269.420 199.200,269.200 199.200 C 268.980 199.200,268.800 198.840,268.800 198.400 C 268.800 197.960,268.620 197.600,268.400 197.600 C 268.180 197.600,268.000 197.240,268.000 196.800 C 268.000 196.360,267.820 196.000,267.600 196.000 C 267.380 196.000,267.200 195.640,267.200 195.200 C 267.200 194.760,267.020 194.400,266.800 194.400 C 266.580 194.400,266.400 194.080,266.400 193.688 C 266.400 193.297,266.040 192.717,265.600 192.400 C 265.160 192.083,264.800 191.503,264.800 191.112 C 264.800 190.720,264.620 190.400,264.400 190.400 C 264.180 190.400,264.000 190.040,264.000 189.600 C 264.000 189.160,263.820 188.800,263.600 188.800 C 263.380 188.800,263.200 188.440,263.200 188.000 C 263.200 187.560,263.020 187.200,262.800 187.200 C 262.580 187.200,262.400 186.840,262.400 186.400 C 262.400 185.960,262.220 185.600,262.000 185.600 C 261.780 185.600,261.600 185.240,261.600 184.800 C 261.600 184.360,261.420 184.000,261.200 184.000 C 260.980 184.000,260.800 183.712,260.800 183.360 C 260.800 183.009,260.260 182.217,259.600 181.600 C 258.940 180.983,258.400 180.231,258.400 179.928 C 258.400 179.625,258.040 179.117,257.600 178.800 C 257.160 178.483,256.800 177.903,256.800 177.512 C 256.800 177.120,256.620 176.800,256.400 176.800 C 256.180 176.800,256.000 176.440,256.000 176.000 C 256.000 175.560,255.820 175.200,255.600 175.200 C 255.380 175.200,255.200 174.840,255.200 174.400 C 255.200 173.960,255.020 173.600,254.800 173.600 C 254.580 173.600,254.400 173.240,254.400 172.800 C 254.400 172.360,254.220 172.000,254.000 172.000 C 253.780 172.000,253.600 171.640,253.600 171.200 C 253.600 170.760,253.420 170.400,253.200 170.400 C 252.980 170.400,252.800 170.040,252.800 169.600 C 252.800 169.160,252.620 168.800,252.400 168.800 C 252.180 168.800,252.000 168.440,252.000 168.000 C 252.000 167.560,251.820 167.200,251.600 167.200 C 251.380 167.200,251.200 166.880,251.200 166.488 C 251.200 166.097,250.840 165.517,250.400 165.200 C 249.960 164.883,249.600 164.303,249.600 163.912 C 249.600 163.520,249.420 163.200,249.200 163.200 C 248.980 163.200,248.800 162.840,248.800 162.400 C 248.800 161.960,248.620 161.600,248.400 161.600 C 248.180 161.600,248.000 161.240,248.000 160.800 C 248.000 160.360,247.820 160.000,247.600 160.000 C 247.380 160.000,247.200 159.640,247.200 159.200 C 247.200 158.760,247.020 158.400,246.800 158.400 C 246.580 158.400,246.400 158.040,246.400 157.600 C 246.400 157.160,246.220 156.800,246.000 156.800 C 245.780 156.800,245.600 156.440,245.600 156.000 C 245.600 155.560,245.420 155.200,245.200 155.200 C 244.980 155.200,244.800 154.840,244.800 154.400 C 244.800 153.960,244.620 153.600,244.400 153.600 C 244.180 153.600,244.000 153.240,244.000 152.800 C 244.000 152.360,243.820 152.000,243.600 152.000 C 243.380 152.000,243.200 151.680,243.200 151.288 C 243.200 150.897,242.840 150.317,242.400 150.000 C 241.960 149.683,241.600 149.103,241.600 148.712 C 241.600 148.320,241.420 148.000,241.200 148.000 C 240.980 148.000,240.800 147.640,240.800 147.200 C 240.800 146.760,240.620 146.400,240.400 146.400 C 240.180 146.400,240.000 146.040,240.000 145.600 C 240.000 145.160,239.820 144.800,239.600 144.800 C 239.380 144.800,239.200 144.440,239.200 144.000 C 239.200 143.560,239.020 143.200,238.800 143.200 C 238.580 143.200,238.400 142.840,238.400 142.400 C 238.400 141.960,238.220 141.600,238.000 141.600 C 237.780 141.600,237.600 141.240,237.600 140.800 C 237.600 140.360,237.420 140.000,237.200 140.000 C 236.980 140.000,236.800 139.640,236.800 139.200 C 236.800 138.760,236.620 138.400,236.400 138.400 C 236.180 138.400,236.000 138.040,236.000 137.600 C 236.000 137.160,235.820 136.800,235.600 136.800 C 235.380 136.800,235.200 136.512,235.200 136.160 C 235.200 135.809,234.660 135.017,234.000 134.400 C 233.340 133.783,232.800 132.991,232.800 132.640 C 232.800 132.288,232.620 132.000,232.400 132.000 C 232.180 132.000,232.000 131.640,232.000 131.200 C 232.000 130.760,231.820 130.400,231.600 130.400 C 231.380 130.400,231.200 130.040,231.200 129.600 C 231.200 129.160,231.020 128.800,230.800 128.800 C 230.580 128.800,230.400 128.440,230.400 128.000 C 230.400 127.560,230.220 127.200,230.000 127.200 C 229.780 127.200,229.600 126.840,229.600 126.400 C 229.600 125.960,229.420 125.600,229.200 125.600 C 228.980 125.600,228.800 125.240,228.800 124.800 C 228.800 124.360,228.620 124.000,228.400 124.000 C 228.180 124.000,228.000 123.680,228.000 123.288 C 228.000 122.897,227.640 122.317,227.200 122.000 C 226.760 121.683,226.400 121.103,226.400 120.712 C 226.400 120.320,226.220 120.000,226.000 120.000 C 225.780 120.000,225.600 119.640,225.600 119.200 C 225.600 118.760,225.420 118.400,225.200 118.400 C 224.980 118.400,224.800 118.040,224.800 117.600 C 224.800 117.160,224.620 116.800,224.400 116.800 C 224.180 116.800,224.000 116.440,224.000 116.000 C 224.000 115.560,223.820 115.200,223.600 115.200 C 223.380 115.200,223.200 114.840,223.200 114.400 C 223.200 113.960,223.020 113.600,222.800 113.600 C 222.580 113.600,222.400 113.240,222.400 112.800 C 222.400 112.360,222.220 112.000,222.000 112.000 C 221.780 112.000,221.600 111.640,221.600 111.200 C 221.600 110.760,221.420 110.400,221.200 110.400 C 220.980 110.400,220.800 110.040,220.800 109.600 C 220.800 109.160,220.620 108.800,220.400 108.800 C 220.180 108.800,220.000 108.480,220.000 108.088 C 220.000 107.697,219.640 107.117,219.200 106.800 C 218.760 106.483,218.400 105.903,218.400 105.512 C 218.400 105.120,218.220 104.800,218.000 104.800 C 217.780 104.800,217.600 104.440,217.600 104.000 C 217.600 103.560,217.420 103.200,217.200 103.200 C 216.980 103.200,216.800 102.840,216.800 102.400 C 216.800 101.960,216.620 101.600,216.400 101.600 C 216.180 101.600,216.000 101.240,216.000 100.800 C 216.000 100.360,215.820 100.000,215.600 100.000 C 215.380 100.000,215.200 99.680,215.200 99.288 C 215.200 98.897,214.840 98.317,214.400 98.000 C 213.960 97.683,213.600 97.103,213.600 96.712 C 213.600 96.320,213.420 96.000,213.200 96.000 C 212.980 96.000,212.800 95.640,212.800 95.200 C 212.800 94.760,212.620 94.400,212.400 94.400 C 212.180 94.400,212.000 94.080,212.000 93.688 C 212.000 93.297,211.640 92.717,211.200 92.400 C 210.760 92.083,210.400 91.503,210.400 91.112 C 210.400 90.720,210.220 90.400,210.000 90.400 C 209.780 90.400,209.600 90.040,209.600 89.600 C 209.600 89.160,209.420 88.800,209.200 88.800 C 208.980 88.800,208.800 88.440,208.800 88.000 C 208.800 87.560,208.620 87.200,208.400 87.200 C 208.180 87.200,208.000 86.840,208.000 86.400 C 208.000 85.960,207.820 85.600,207.600 85.600 C 207.380 85.600,207.200 85.240,207.200 84.800 C 207.200 84.360,207.020 84.000,206.800 84.000 C 206.580 84.000,206.400 83.716,206.400 83.369 C 206.400 83.021,205.680 82.046,204.800 81.200 C 203.920 80.354,203.200 79.379,203.200 79.031 C 203.200 78.684,203.020 78.400,202.800 78.400 C 202.580 78.400,202.400 78.040,202.400 77.600 C 202.400 76.889,202.133 76.800,200.000 76.800 C 197.867 76.800,197.600 76.889,197.600 77.600 " stroke="none" fill="#fcfcfc" fill-rule="evenodd"></path><path id="path1" d="M172.800 0.418 C 169.662 0.785,165.254 1.466,162.800 1.962 C 161.810 2.162,160.010 2.522,158.800 2.762 C 157.590 3.002,155.790 3.388,154.800 3.621 C 153.810 3.853,152.280 4.181,151.400 4.348 C 150.520 4.515,148.720 4.967,147.400 5.353 C 146.080 5.738,143.740 6.419,142.200 6.867 C 140.660 7.316,139.087 7.844,138.705 8.041 C 138.323 8.238,137.659 8.400,137.229 8.400 C 136.799 8.400,136.336 8.580,136.200 8.800 C 136.064 9.020,135.511 9.200,134.972 9.200 C 134.108 9.200,131.552 10.151,129.505 11.233 C 129.123 11.435,128.493 11.606,128.105 11.613 C 127.717 11.619,126.325 12.159,125.010 12.813 C 123.696 13.466,122.388 14.000,122.105 14.000 C 121.821 14.000,121.277 14.159,120.895 14.354 C 117.612 16.028,114.996 17.200,114.544 17.200 C 114.245 17.200,114.000 17.380,114.000 17.600 C 114.000 17.820,113.658 18.000,113.241 18.000 C 112.531 18.000,110.736 18.861,106.400 21.283 C 105.410 21.836,103.790 22.738,102.800 23.288 C 101.810 23.837,100.325 24.672,99.500 25.143 C 98.675 25.615,97.394 26.343,96.653 26.763 C 95.913 27.183,94.094 28.263,92.612 29.163 C 91.131 30.063,89.832 30.800,89.726 30.800 C 89.621 30.800,88.424 31.608,87.067 32.596 C 85.710 33.584,83.340 35.306,81.800 36.421 C 78.231 39.008,77.222 39.768,74.236 42.118 C 69.092 46.168,66.730 48.220,62.052 52.700 C 60.845 53.855,59.815 54.800,59.761 54.800 C 59.611 54.800,54.800 59.646,54.800 59.798 C 54.800 59.872,53.495 61.286,51.900 62.942 C 48.045 66.944,46.800 68.310,46.800 68.540 C 46.800 68.645,46.215 69.350,45.500 70.107 C 44.785 70.864,43.210 72.784,42.000 74.375 C 40.790 75.966,39.530 77.594,39.200 77.994 C 38.870 78.393,37.610 80.114,36.400 81.819 C 35.190 83.524,33.435 85.951,32.500 87.214 C 31.565 88.477,30.800 89.602,30.800 89.714 C 30.800 89.826,30.063 91.131,29.163 92.612 C 28.263 94.094,27.183 95.913,26.763 96.653 C 25.857 98.253,24.722 100.239,23.538 102.300 C 22.660 103.828,21.348 106.230,19.200 110.241 C 18.540 111.473,18.000 112.823,18.000 113.241 C 18.000 113.658,17.820 114.000,17.600 114.000 C 17.380 114.000,17.200 114.214,17.200 114.476 C 17.200 114.874,15.723 118.206,14.354 120.895 C 14.159 121.277,14.000 121.856,14.000 122.182 C 14.000 122.509,13.667 123.369,13.259 124.095 C 12.852 124.820,12.117 126.581,11.626 128.007 C 11.135 129.433,10.388 131.363,9.967 132.296 C 9.545 133.228,9.200 134.433,9.200 134.972 C 9.200 135.511,9.020 136.064,8.800 136.200 C 8.580 136.336,8.400 136.799,8.400 137.229 C 8.400 137.659,8.238 138.323,8.041 138.705 C 7.844 139.087,7.291 140.750,6.812 142.400 C 6.334 144.050,5.775 145.953,5.571 146.628 C 5.367 147.304,5.200 148.238,5.200 148.705 C 5.200 149.171,5.020 149.664,4.800 149.800 C 4.580 149.936,4.400 150.746,4.400 151.600 C 4.400 152.454,4.220 153.264,4.000 153.400 C 3.780 153.536,3.600 154.346,3.600 155.200 C 3.600 156.054,3.420 156.864,3.200 157.000 C 2.980 157.136,2.800 158.036,2.800 159.000 C 2.800 159.964,2.646 160.848,2.457 160.965 C 2.269 161.081,1.979 162.127,1.813 163.288 C 1.647 164.450,1.363 166.390,1.182 167.600 C 1.000 168.810,0.670 171.240,0.447 173.000 C -0.086 177.224,-0.084 221.197,0.450 225.400 C 1.525 233.869,1.916 236.260,2.411 237.400 C 2.602 237.840,2.849 239.010,2.961 240.000 C 3.309 243.100,3.675 244.799,4.044 245.027 C 4.240 245.148,4.400 245.946,4.400 246.800 C 4.400 247.654,4.580 248.464,4.800 248.600 C 5.020 248.736,5.200 249.366,5.200 250.000 C 5.200 250.634,5.356 251.249,5.546 251.367 C 5.736 251.484,5.988 252.294,6.105 253.166 C 6.222 254.038,6.606 255.330,6.959 256.037 C 7.311 256.744,7.600 257.825,7.600 258.438 C 7.600 259.051,7.780 259.664,8.000 259.800 C 8.220 259.936,8.400 260.476,8.400 261.000 C 8.400 261.524,8.580 262.064,8.800 262.200 C 9.020 262.336,9.200 262.889,9.200 263.428 C 9.200 264.292,10.151 266.848,11.233 268.895 C 11.435 269.277,11.606 269.907,11.613 270.295 C 11.619 270.683,12.159 272.075,12.813 273.390 C 13.466 274.704,14.000 276.012,14.000 276.295 C 14.000 276.579,14.159 277.123,14.354 277.505 C 16.028 280.788,17.200 283.404,17.200 283.856 C 17.200 284.155,17.380 284.400,17.600 284.400 C 17.820 284.400,18.000 284.742,18.000 285.159 C 18.000 285.577,18.540 286.927,19.200 288.159 C 21.348 292.170,22.660 294.572,23.538 296.100 C 25.017 298.674,25.969 300.345,26.843 301.900 C 27.306 302.725,27.827 303.580,28.000 303.800 C 28.173 304.020,28.694 304.875,29.157 305.700 C 29.621 306.525,30.345 307.809,30.767 308.553 C 31.188 309.297,32.133 310.709,32.867 311.690 C 33.600 312.671,35.190 314.870,36.400 316.577 C 37.610 318.284,38.870 320.007,39.200 320.406 C 39.530 320.806,40.790 322.434,42.000 324.025 C 43.210 325.616,44.785 327.536,45.500 328.293 C 46.215 329.050,46.800 329.755,46.800 329.860 C 46.800 330.083,47.678 331.054,51.784 335.372 C 53.443 337.117,54.800 338.581,54.800 338.627 C 54.800 338.795,59.519 343.600,59.684 343.600 C 59.778 343.600,61.219 344.905,62.884 346.500 C 65.850 349.340,69.022 352.169,70.872 353.624 C 71.382 354.026,72.896 355.220,74.236 356.277 C 77.160 358.584,78.186 359.358,81.653 361.875 C 87.443 366.077,89.238 367.335,90.100 367.795 C 90.595 368.059,91.675 368.663,92.500 369.137 C 93.325 369.612,94.675 370.379,95.500 370.843 C 96.325 371.306,97.180 371.827,97.400 372.000 C 97.620 372.173,98.475 372.694,99.300 373.157 C 100.125 373.621,101.475 374.388,102.300 374.862 C 103.828 375.740,106.230 377.052,110.241 379.200 C 111.473 379.860,112.823 380.400,113.241 380.400 C 113.658 380.400,114.000 380.580,114.000 380.800 C 114.000 381.020,114.218 381.200,114.484 381.200 C 114.750 381.200,116.145 381.772,117.584 382.472 C 119.023 383.171,120.605 383.891,121.100 384.072 C 122.402 384.547,123.608 385.035,125.200 385.730 C 125.970 386.067,127.500 386.637,128.600 386.998 C 129.700 387.360,131.363 388.003,132.296 388.427 C 133.228 388.852,134.356 389.200,134.801 389.200 C 135.246 389.200,135.968 389.380,136.405 389.600 C 136.842 389.820,137.558 390.180,137.995 390.400 C 138.432 390.620,139.083 390.800,139.442 390.800 C 139.801 390.800,141.289 391.175,142.747 391.634 C 147.239 393.045,147.829 393.200,148.705 393.200 C 149.171 393.200,149.652 393.361,149.774 393.558 C 149.895 393.755,150.671 394.010,151.497 394.125 C 152.324 394.240,153.810 394.540,154.800 394.790 C 155.790 395.041,157.500 395.416,158.600 395.623 C 159.700 395.830,161.500 396.183,162.600 396.408 C 163.700 396.632,165.860 396.993,167.400 397.210 C 168.940 397.427,171.280 397.778,172.600 397.990 C 178.383 398.918,187.476 399.400,199.200 399.400 C 210.924 399.400,220.017 398.918,225.800 397.990 C 227.120 397.778,229.460 397.427,231.000 397.210 C 232.540 396.993,234.610 396.649,235.600 396.445 C 236.590 396.241,238.390 395.878,239.600 395.638 C 240.810 395.398,242.610 395.007,243.600 394.768 C 244.590 394.530,246.076 394.240,246.903 394.125 C 247.729 394.010,248.505 393.755,248.626 393.558 C 248.748 393.361,249.229 393.200,249.695 393.200 C 250.162 393.200,251.096 393.035,251.772 392.834 C 252.447 392.632,254.170 392.114,255.600 391.683 C 257.030 391.252,259.060 390.672,260.110 390.395 C 261.161 390.117,262.117 389.735,262.234 389.545 C 262.351 389.355,262.889 389.200,263.428 389.200 C 263.967 389.200,265.172 388.852,266.104 388.427 C 267.037 388.003,268.700 387.360,269.800 386.998 C 270.900 386.637,272.430 386.067,273.200 385.730 C 275.007 384.940,276.400 384.367,277.400 383.999 C 277.840 383.838,279.350 383.142,280.756 382.453 C 282.162 381.764,283.557 381.200,283.856 381.200 C 284.155 381.200,284.400 381.020,284.400 380.800 C 284.400 380.580,284.742 380.400,285.159 380.400 C 285.874 380.400,287.659 379.541,292.100 377.061 C 293.145 376.478,294.765 375.575,295.700 375.057 C 296.635 374.538,298.075 373.728,298.900 373.257 C 299.725 372.785,301.075 372.021,301.900 371.557 C 302.725 371.094,303.580 370.573,303.800 370.400 C 304.192 370.091,306.519 368.744,308.300 367.795 C 309.881 366.952,319.216 360.177,324.164 356.282 C 330.286 351.462,332.319 349.708,335.788 346.256 C 337.256 344.795,338.520 343.600,338.597 343.600 C 338.751 343.600,343.600 338.793,343.600 338.640 C 343.600 338.587,344.905 337.181,346.500 335.516 C 349.340 332.550,352.169 329.378,353.624 327.528 C 354.026 327.018,355.220 325.504,356.277 324.164 C 358.616 321.200,359.372 320.197,361.979 316.600 C 363.094 315.060,364.816 312.690,365.804 311.333 C 366.792 309.976,367.600 308.744,367.600 308.595 C 367.600 308.446,367.939 307.846,368.353 307.262 C 368.767 306.678,369.487 305.525,369.953 304.700 C 370.419 303.875,371.160 302.570,371.600 301.800 C 372.040 301.030,372.760 299.770,373.200 299.000 C 373.640 298.230,374.389 296.925,374.865 296.100 C 375.341 295.275,376.391 293.340,377.200 291.800 C 378.009 290.260,379.059 288.320,379.535 287.488 C 380.011 286.656,380.400 285.636,380.400 285.221 C 380.400 284.806,380.535 284.407,380.700 284.333 C 380.972 284.213,383.213 279.518,384.057 277.300 C 384.691 275.637,385.116 274.610,385.960 272.704 C 386.422 271.662,386.800 270.534,386.800 270.199 C 386.800 269.864,386.965 269.277,387.167 268.895 C 388.249 266.848,389.200 264.292,389.200 263.428 C 389.200 262.889,389.380 262.336,389.600 262.200 C 389.820 262.064,390.000 261.601,390.000 261.171 C 390.000 260.741,390.162 260.077,390.359 259.695 C 390.556 259.313,391.109 257.650,391.588 256.000 C 392.066 254.350,392.625 252.447,392.829 251.772 C 393.033 251.096,393.200 250.162,393.200 249.695 C 393.200 249.229,393.380 248.736,393.600 248.600 C 393.820 248.464,394.000 247.654,394.000 246.800 C 394.000 245.946,394.160 245.148,394.356 245.027 C 394.551 244.906,394.813 244.221,394.936 243.504 C 395.233 241.784,395.901 238.288,396.408 235.800 C 396.632 234.700,397.005 232.450,397.236 230.800 C 397.467 229.150,397.823 226.630,398.026 225.200 C 399.926 211.864,399.907 184.586,397.990 172.600 C 397.779 171.280,397.416 169.030,397.185 167.600 C 396.953 166.170,396.664 164.190,396.543 163.200 C 396.422 162.210,396.160 161.229,395.961 161.020 C 395.763 160.811,395.600 160.049,395.600 159.326 C 395.600 157.861,394.896 154.574,394.353 153.505 C 394.159 153.123,394.000 152.189,394.000 151.429 C 394.000 150.669,393.820 149.936,393.600 149.800 C 393.380 149.664,393.200 149.034,393.200 148.400 C 393.200 147.766,393.020 147.136,392.800 147.000 C 392.580 146.864,392.400 146.292,392.400 145.729 C 392.400 144.718,391.041 140.055,390.354 138.705 C 390.159 138.323,390.000 137.659,390.000 137.229 C 390.000 136.799,389.820 136.336,389.600 136.200 C 389.380 136.064,389.200 135.511,389.200 134.972 C 389.200 134.108,388.249 131.552,387.167 129.505 C 386.965 129.123,386.800 128.536,386.800 128.201 C 386.800 127.866,386.422 126.738,385.960 125.696 C 385.031 123.598,384.447 122.208,383.990 121.000 C 383.823 120.560,383.127 118.977,382.443 117.482 C 381.760 115.987,381.200 114.592,381.200 114.382 C 381.200 114.172,381.020 114.000,380.800 114.000 C 380.580 114.000,380.400 113.645,380.400 113.212 C 380.400 112.779,380.011 111.744,379.535 110.912 C 379.059 110.080,378.009 108.140,377.200 106.600 C 376.391 105.060,375.341 103.125,374.865 102.300 C 373.569 100.053,372.497 98.172,371.557 96.500 C 371.094 95.675,370.573 94.820,370.400 94.600 C 370.227 94.380,369.706 93.525,369.243 92.700 C 368.779 91.875,368.055 90.591,367.633 89.847 C 367.212 89.103,366.267 87.691,365.533 86.710 C 364.800 85.729,363.210 83.530,362.000 81.823 C 360.790 80.116,359.530 78.393,359.200 77.994 C 358.870 77.594,357.610 75.966,356.400 74.375 C 355.190 72.784,353.615 70.864,352.900 70.107 C 352.185 69.350,351.600 68.645,351.600 68.540 C 351.600 68.317,350.722 67.346,346.616 63.028 C 344.957 61.283,343.600 59.813,343.600 59.760 C 343.600 59.635,338.765 54.800,338.640 54.800 C 338.587 54.800,337.181 53.495,335.516 51.900 C 332.550 49.060,329.378 46.231,327.528 44.776 C 327.018 44.374,325.504 43.180,324.164 42.123 C 321.200 39.784,320.197 39.028,316.600 36.421 C 315.060 35.306,312.690 33.584,311.333 32.596 C 309.976 31.608,308.779 30.800,308.674 30.800 C 308.568 30.800,307.269 30.063,305.788 29.163 C 304.306 28.263,302.487 27.183,301.747 26.763 C 301.006 26.343,299.725 25.615,298.900 25.143 C 296.062 23.523,294.194 22.490,291.600 21.107 C 290.170 20.344,288.320 19.333,287.488 18.860 C 286.656 18.387,285.621 18.000,285.188 18.000 C 284.755 18.000,284.400 17.820,284.400 17.600 C 284.400 17.380,284.228 17.200,284.018 17.200 C 283.672 17.200,279.215 15.259,277.505 14.364 C 277.123 14.164,276.544 14.000,276.218 14.000 C 275.891 14.000,275.031 13.667,274.305 13.259 C 273.580 12.852,271.819 12.117,270.393 11.626 C 268.967 11.135,267.037 10.388,266.104 9.967 C 265.172 9.545,264.040 9.200,263.588 9.200 C 263.137 9.200,262.062 8.840,261.200 8.400 C 260.338 7.960,259.333 7.600,258.968 7.600 C 258.604 7.600,257.111 7.225,255.653 6.766 C 251.161 5.355,250.571 5.200,249.695 5.200 C 249.229 5.200,248.748 5.039,248.626 4.842 C 248.505 4.645,247.729 4.390,246.903 4.275 C 246.076 4.160,244.590 3.860,243.600 3.610 C 242.610 3.359,240.900 2.984,239.800 2.777 C 238.700 2.570,236.900 2.217,235.800 1.992 C 233.773 1.579,230.088 1.036,225.000 0.400 C 221.600 -0.026,176.454 -0.010,172.800 0.418 M202.400 77.600 C 202.400 78.040,202.580 78.400,202.800 78.400 C 203.020 78.400,203.200 78.684,203.200 79.031 C 203.200 79.379,203.920 80.354,204.800 81.200 C 205.680 82.046,206.400 83.021,206.400 83.369 C 206.400 83.716,206.580 84.000,206.800 84.000 C 207.020 84.000,207.200 84.360,207.200 84.800 C 207.200 85.240,207.380 85.600,207.600 85.600 C 207.820 85.600,208.000 85.960,208.000 86.400 C 208.000 86.840,208.180 87.200,208.400 87.200 C 208.620 87.200,208.800 87.560,208.800 88.000 C 208.800 88.440,208.980 88.800,209.200 88.800 C 209.420 88.800,209.600 89.160,209.600 89.600 C 209.600 90.040,209.780 90.400,210.000 90.400 C 210.220 90.400,210.400 90.720,210.400 91.112 C 210.400 91.503,210.760 92.083,211.200 92.400 C 211.640 92.717,212.000 93.297,212.000 93.688 C 212.000 94.080,212.180 94.400,212.400 94.400 C 212.620 94.400,212.800 94.760,212.800 95.200 C 212.800 95.640,212.980 96.000,213.200 96.000 C 213.420 96.000,213.600 96.320,213.600 96.712 C 213.600 97.103,213.960 97.683,214.400 98.000 C 214.840 98.317,215.200 98.897,215.200 99.288 C 215.200 99.680,215.380 100.000,215.600 100.000 C 215.820 100.000,216.000 100.360,216.000 100.800 C 216.000 101.240,216.180 101.600,216.400 101.600 C 216.620 101.600,216.800 101.960,216.800 102.400 C 216.800 102.840,216.980 103.200,217.200 103.200 C 217.420 103.200,217.600 103.560,217.600 104.000 C 217.600 104.440,217.780 104.800,218.000 104.800 C 218.220 104.800,218.400 105.120,218.400 105.512 C 218.400 105.903,218.760 106.483,219.200 106.800 C 219.640 107.117,220.000 107.697,220.000 108.088 C 220.000 108.480,220.180 108.800,220.400 108.800 C 220.620 108.800,220.800 109.160,220.800 109.600 C 220.800 110.040,220.980 110.400,221.200 110.400 C 221.420 110.400,221.600 110.760,221.600 111.200 C 221.600 111.640,221.780 112.000,222.000 112.000 C 222.220 112.000,222.400 112.360,222.400 112.800 C 222.400 113.240,222.580 113.600,222.800 113.600 C 223.020 113.600,223.200 113.960,223.200 114.400 C 223.200 114.840,223.380 115.200,223.600 115.200 C 223.820 115.200,224.000 115.560,224.000 116.000 C 224.000 116.440,224.180 116.800,224.400 116.800 C 224.620 116.800,224.800 117.160,224.800 117.600 C 224.800 118.040,224.980 118.400,225.200 118.400 C 225.420 118.400,225.600 118.760,225.600 119.200 C 225.600 119.640,225.780 120.000,226.000 120.000 C 226.220 120.000,226.400 120.320,226.400 120.712 C 226.400 121.103,226.760 121.683,227.200 122.000 C 227.640 122.317,228.000 122.897,228.000 123.288 C 228.000 123.680,228.180 124.000,228.400 124.000 C 228.620 124.000,228.800 124.360,228.800 124.800 C 228.800 125.240,228.980 125.600,229.200 125.600 C 229.420 125.600,229.600 125.960,229.600 126.400 C 229.600 126.840,229.780 127.200,230.000 127.200 C 230.220 127.200,230.400 127.560,230.400 128.000 C 230.400 128.440,230.580 128.800,230.800 128.800 C 231.020 128.800,231.200 129.160,231.200 129.600 C 231.200 130.040,231.380 130.400,231.600 130.400 C 231.820 130.400,232.000 130.760,232.000 131.200 C 232.000 131.640,232.180 132.000,232.400 132.000 C 232.620 132.000,232.800 132.288,232.800 132.640 C 232.800 132.991,233.340 133.783,234.000 134.400 C 234.660 135.017,235.200 135.809,235.200 136.160 C 235.200 136.512,235.380 136.800,235.600 136.800 C 235.820 136.800,236.000 137.160,236.000 137.600 C 236.000 138.040,236.180 138.400,236.400 138.400 C 236.620 138.400,236.800 138.760,236.800 139.200 C 236.800 139.640,236.980 140.000,237.200 140.000 C 237.420 140.000,237.600 140.360,237.600 140.800 C 237.600 141.240,237.780 141.600,238.000 141.600 C 238.220 141.600,238.400 141.960,238.400 142.400 C 238.400 142.840,238.580 143.200,238.800 143.200 C 239.020 143.200,239.200 143.560,239.200 144.000 C 239.200 144.440,239.380 144.800,239.600 144.800 C 239.820 144.800,240.000 145.160,240.000 145.600 C 240.000 146.040,240.180 146.400,240.400 146.400 C 240.620 146.400,240.800 146.760,240.800 147.200 C 240.800 147.640,240.980 148.000,241.200 148.000 C 241.420 148.000,241.600 148.320,241.600 148.712 C 241.600 149.103,241.960 149.683,242.400 150.000 C 242.840 150.317,243.200 150.897,243.200 151.288 C 243.200 151.680,243.380 152.000,243.600 152.000 C 243.820 152.000,244.000 152.360,244.000 152.800 C 244.000 153.240,244.180 153.600,244.400 153.600 C 244.620 153.600,244.800 153.960,244.800 154.400 C 244.800 154.840,244.980 155.200,245.200 155.200 C 245.420 155.200,245.600 155.560,245.600 156.000 C 245.600 156.440,245.780 156.800,246.000 156.800 C 246.220 156.800,246.400 157.160,246.400 157.600 C 246.400 158.040,246.580 158.400,246.800 158.400 C 247.020 158.400,247.200 158.760,247.200 159.200 C 247.200 159.640,247.380 160.000,247.600 160.000 C 247.820 160.000,248.000 160.360,248.000 160.800 C 248.000 161.240,248.180 161.600,248.400 161.600 C 248.620 161.600,248.800 161.960,248.800 162.400 C 248.800 162.840,248.980 163.200,249.200 163.200 C 249.420 163.200,249.600 163.520,249.600 163.912 C 249.600 164.303,249.960 164.883,250.400 165.200 C 250.840 165.517,251.200 166.097,251.200 166.488 C 251.200 166.880,251.380 167.200,251.600 167.200 C 251.820 167.200,252.000 167.560,252.000 168.000 C 252.000 168.440,252.180 168.800,252.400 168.800 C 252.620 168.800,252.800 169.160,252.800 169.600 C 252.800 170.040,252.980 170.400,253.200 170.400 C 253.420 170.400,253.600 170.760,253.600 171.200 C 253.600 171.640,253.780 172.000,254.000 172.000 C 254.220 172.000,254.400 172.360,254.400 172.800 C 254.400 173.240,254.580 173.600,254.800 173.600 C 255.020 173.600,255.200 173.960,255.200 174.400 C 255.200 174.840,255.380 175.200,255.600 175.200 C 255.820 175.200,256.000 175.560,256.000 176.000 C 256.000 176.440,256.180 176.800,256.400 176.800 C 256.620 176.800,256.800 177.120,256.800 177.512 C 256.800 177.903,257.160 178.483,257.600 178.800 C 258.040 179.117,258.400 179.625,258.400 179.928 C 258.400 180.231,258.940 180.983,259.600 181.600 C 260.260 182.217,260.800 183.009,260.800 183.360 C 260.800 183.712,260.980 184.000,261.200 184.000 C 261.420 184.000,261.600 184.360,261.600 184.800 C 261.600 185.240,261.780 185.600,262.000 185.600 C 262.220 185.600,262.400 185.960,262.400 186.400 C 262.400 186.840,262.580 187.200,262.800 187.200 C 263.020 187.200,263.200 187.560,263.200 188.000 C 263.200 188.440,263.380 188.800,263.600 188.800 C 263.820 188.800,264.000 189.160,264.000 189.600 C 264.000 190.040,264.180 190.400,264.400 190.400 C 264.620 190.400,264.800 190.720,264.800 191.112 C 264.800 191.503,265.160 192.083,265.600 192.400 C 266.040 192.717,266.400 193.297,266.400 193.688 C 266.400 194.080,266.580 194.400,266.800 194.400 C 267.020 194.400,267.200 194.760,267.200 195.200 C 267.200 195.640,267.380 196.000,267.600 196.000 C 267.820 196.000,268.000 196.360,268.000 196.800 C 268.000 197.240,268.180 197.600,268.400 197.600 C 268.620 197.600,268.800 197.960,268.800 198.400 C 268.800 198.840,268.980 199.200,269.200 199.200 C 269.420 199.200,269.600 199.560,269.600 200.000 C 269.600 200.440,269.780 200.800,270.000 200.800 C 270.220 200.800,270.400 201.160,270.400 201.600 C 270.400 202.040,270.580 202.400,270.800 202.400 C 271.020 202.400,271.200 202.760,271.200 203.200 C 271.200 203.640,271.380 204.000,271.600 204.000 C 271.820 204.000,272.000 204.320,272.000 204.712 C 272.000 205.103,272.360 205.683,272.800 206.000 C 273.240 206.317,273.600 206.897,273.600 207.288 C 273.600 207.680,273.780 208.000,274.000 208.000 C 274.220 208.000,274.400 208.360,274.400 208.800 C 274.400 209.240,274.580 209.600,274.800 209.600 C 275.020 209.600,275.200 209.960,275.200 210.400 C 275.200 210.840,275.380 211.200,275.600 211.200 C 275.820 211.200,276.000 211.560,276.000 212.000 C 276.000 212.440,276.180 212.800,276.400 212.800 C 276.620 212.800,276.800 213.160,276.800 213.600 C 276.800 214.040,276.980 214.400,277.200 214.400 C 277.420 214.400,277.600 214.760,277.600 215.200 C 277.600 215.640,277.780 216.000,278.000 216.000 C 278.220 216.000,278.400 216.360,278.400 216.800 C 278.400 217.240,278.580 217.600,278.800 217.600 C 279.020 217.600,279.200 217.960,279.200 218.400 C 279.200 218.840,279.380 219.200,279.600 219.200 C 279.820 219.200,280.000 219.520,280.000 219.912 C 280.000 220.303,280.360 220.883,280.800 221.200 C 281.240 221.517,281.600 222.057,281.600 222.400 C 281.600 222.743,281.960 223.283,282.400 223.600 C 282.840 223.917,283.200 224.497,283.200 224.888 C 283.200 225.280,283.380 225.600,283.600 225.600 C 283.820 225.600,284.000 225.960,284.000 226.400 C 284.000 226.840,284.180 227.200,284.400 227.200 C 284.620 227.200,284.800 227.560,284.800 228.000 C 284.800 228.440,284.980 228.800,285.200 228.800 C 285.420 228.800,285.600 229.160,285.600 229.600 C 285.600 230.040,285.780 230.400,286.000 230.400 C 286.220 230.400,286.400 230.760,286.400 231.200 C 286.400 231.640,286.580 232.000,286.800 232.000 C 287.020 232.000,287.200 232.360,287.200 232.800 C 287.200 233.240,287.380 233.600,287.600 233.600 C 287.820 233.600,288.000 233.920,288.000 234.312 C 288.000 234.703,288.360 235.283,288.800 235.600 C 289.240 235.917,289.600 236.497,289.600 236.888 C 289.600 237.280,289.780 237.600,290.000 237.600 C 290.220 237.600,290.400 237.960,290.400 238.400 C 290.400 238.840,290.580 239.200,290.800 239.200 C 291.020 239.200,291.200 239.560,291.200 240.000 C 291.200 240.440,291.380 240.800,291.600 240.800 C 291.820 240.800,292.000 241.160,292.000 241.600 C 292.000 242.040,292.180 242.400,292.400 242.400 C 292.620 242.400,292.800 242.760,292.800 243.200 C 292.800 243.640,292.980 244.000,293.200 244.000 C 293.420 244.000,293.600 244.360,293.600 244.800 C 293.600 245.240,293.780 245.600,294.000 245.600 C 294.220 245.600,294.400 245.888,294.400 246.240 C 294.400 246.591,294.940 247.383,295.600 248.000 C 296.260 248.617,296.800 249.409,296.800 249.760 C 296.800 250.112,296.980 250.400,297.200 250.400 C 297.420 250.400,297.600 250.760,297.600 251.200 C 297.600 251.640,297.780 252.000,298.000 252.000 C 298.220 252.000,298.400 252.360,298.400 252.800 C 298.400 253.240,298.580 253.600,298.800 253.600 C 299.020 253.600,299.200 253.960,299.200 254.400 C 299.200 254.840,299.380 255.200,299.600 255.200 C 299.820 255.200,300.000 255.560,300.000 256.000 C 300.000 256.440,300.180 256.800,300.400 256.800 C 300.620 256.800,300.800 257.160,300.800 257.600 C 300.800 258.040,300.980 258.400,301.200 258.400 C 301.420 258.400,301.600 258.760,301.600 259.200 C 301.600 259.640,301.780 260.000,302.000 260.000 C 302.220 260.000,302.400 260.360,302.400 260.800 C 302.400 261.240,302.580 261.600,302.800 261.600 C 303.020 261.600,303.200 261.960,303.200 262.400 C 303.200 262.840,303.380 263.200,303.600 263.200 C 303.840 263.200,304.000 264.800,304.000 267.200 C 304.000 269.600,303.840 271.200,303.600 271.200 C 303.378 271.200,303.200 272.267,303.200 273.600 C 303.200 274.933,303.022 276.000,302.800 276.000 C 302.580 276.000,302.400 276.540,302.400 277.200 C 302.400 277.860,302.220 278.400,302.000 278.400 C 301.780 278.400,301.600 278.760,301.600 279.200 C 301.600 279.640,301.420 280.000,301.200 280.000 C 300.980 280.000,300.800 280.360,300.800 280.800 C 300.800 281.240,300.620 281.600,300.400 281.600 C 300.180 281.600,300.000 281.960,300.000 282.400 C 300.000 282.840,299.820 283.200,299.600 283.200 C 299.380 283.200,299.200 283.560,299.200 284.000 C 299.200 285.265,101.312 285.265,100.400 284.000 C 100.083 283.560,99.503 283.200,99.112 283.200 C 98.696 283.200,98.400 282.904,98.400 282.488 C 98.400 282.097,98.040 281.517,97.600 281.200 C 97.043 280.798,96.800 280.165,96.800 279.112 C 96.800 278.280,96.620 277.600,96.400 277.600 C 96.148 277.600,96.000 274.933,96.000 270.400 C 96.000 265.867,96.148 263.200,96.400 263.200 C 96.620 263.200,96.800 262.840,96.800 262.400 C 96.800 261.960,96.980 261.600,97.200 261.600 C 97.420 261.600,97.600 261.240,97.600 260.800 C 97.600 260.360,97.780 260.000,98.000 260.000 C 98.220 260.000,98.400 259.640,98.400 259.200 C 98.400 258.760,98.580 258.400,98.800 258.400 C 99.020 258.400,99.200 258.040,99.200 257.600 C 99.200 257.160,99.380 256.800,99.600 256.800 C 99.820 256.800,100.000 256.440,100.000 256.000 C 100.000 255.560,100.180 255.200,100.400 255.200 C 100.620 255.200,100.800 254.840,100.800 254.400 C 100.800 253.960,100.980 253.600,101.200 253.600 C 101.420 253.600,101.600 253.240,101.600 252.800 C 101.600 252.360,101.780 252.000,102.000 252.000 C 102.220 252.000,102.400 251.640,102.400 251.200 C 102.400 250.760,102.580 250.400,102.800 250.400 C 103.020 250.400,103.200 250.112,103.200 249.760 C 103.200 249.409,103.740 248.617,104.400 248.000 C 105.060 247.383,105.600 246.591,105.600 246.240 C 105.600 245.888,105.780 245.600,106.000 245.600 C 106.220 245.600,106.400 245.240,106.400 244.800 C 106.400 244.360,106.580 244.000,106.800 244.000 C 107.020 244.000,107.200 243.640,107.200 243.200 C 107.200 242.760,107.380 242.400,107.600 242.400 C 107.820 242.400,108.000 242.040,108.000 241.600 C 108.000 241.160,108.180 240.800,108.400 240.800 C 108.620 240.800,108.800 240.440,108.800 240.000 C 108.800 239.560,108.980 239.200,109.200 239.200 C 109.420 239.200,109.600 238.840,109.600 238.400 C 109.600 237.960,109.780 237.600,110.000 237.600 C 110.220 237.600,110.400 237.280,110.400 236.888 C 110.400 236.497,110.760 235.917,111.200 235.600 C 111.640 235.283,112.000 234.703,112.000 234.312 C 112.000 233.920,112.180 233.600,112.400 233.600 C 112.620 233.600,112.800 233.240,112.800 232.800 C 112.800 232.360,112.980 232.000,113.200 232.000 C 113.420 232.000,113.600 231.640,113.600 231.200 C 113.600 230.760,113.780 230.400,114.000 230.400 C 114.220 230.400,114.400 230.040,114.400 229.600 C 114.400 229.160,114.580 228.800,114.800 228.800 C 115.020 228.800,115.200 228.440,115.200 228.000 C 115.200 227.560,115.380 227.200,115.600 227.200 C 115.820 227.200,116.000 226.840,116.000 226.400 C 116.000 225.960,116.180 225.600,116.400 225.600 C 116.620 225.600,116.800 225.280,116.800 224.888 C 116.800 224.497,117.160 223.917,117.600 223.600 C 118.040 223.283,118.400 222.743,118.400 222.400 C 118.400 222.057,118.760 221.517,119.200 221.200 C 119.640 220.883,120.000 220.303,120.000 219.912 C 120.000 219.520,120.180 219.200,120.400 219.200 C 120.620 219.200,120.800 218.840,120.800 218.400 C 120.800 217.960,120.980 217.600,121.200 217.600 C 121.420 217.600,121.600 217.240,121.600 216.800 C 121.600 216.360,121.780 216.000,122.000 216.000 C 122.220 216.000,122.400 215.640,122.400 215.200 C 122.400 214.760,122.580 214.400,122.800 214.400 C 123.020 214.400,123.200 214.040,123.200 213.600 C 123.200 213.160,123.380 212.800,123.600 212.800 C 123.820 212.800,124.000 212.440,124.000 212.000 C 124.000 211.560,124.180 211.200,124.400 211.200 C 124.620 211.200,124.800 210.840,124.800 210.400 C 124.800 209.960,124.980 209.600,125.200 209.600 C 125.420 209.600,125.600 209.240,125.600 208.800 C 125.600 208.360,125.780 208.000,126.000 208.000 C 126.220 208.000,126.400 207.680,126.400 207.288 C 126.400 206.897,126.760 206.317,127.200 206.000 C 127.640 205.683,128.000 205.103,128.000 204.712 C 128.000 204.320,128.180 204.000,128.400 204.000 C 128.620 204.000,128.800 203.640,128.800 203.200 C 128.800 202.760,128.980 202.400,129.200 202.400 C 129.420 202.400,129.600 202.040,129.600 201.600 C 129.600 201.160,129.780 200.800,130.000 200.800 C 130.220 200.800,130.400 200.440,130.400 200.000 C 130.400 199.560,130.580 199.200,130.800 199.200 C 131.020 199.200,131.200 198.840,131.200 198.400 C 131.200 197.960,131.380 197.600,131.600 197.600 C 131.820 197.600,132.000 197.240,132.000 196.800 C 132.000 196.360,132.180 196.000,132.400 196.000 C 132.620 196.000,132.800 195.640,132.800 195.200 C 132.800 194.760,132.980 194.400,133.200 194.400 C 133.420 194.400,133.600 194.080,133.600 193.688 C 133.600 193.297,133.960 192.717,134.400 192.400 C 134.840 192.083,135.200 191.503,135.200 191.112 C 135.200 190.720,135.380 190.400,135.600 190.400 C 135.820 190.400,136.000 190.040,136.000 189.600 C 136.000 189.160,136.180 188.800,136.400 188.800 C 136.620 188.800,136.800 188.440,136.800 188.000 C 136.800 187.560,136.980 187.200,137.200 187.200 C 137.420 187.200,137.600 186.840,137.600 186.400 C 137.600 185.960,137.780 185.600,138.000 185.600 C 138.220 185.600,138.400 185.240,138.400 184.800 C 138.400 184.360,138.580 184.000,138.800 184.000 C 139.020 184.000,139.200 183.712,139.200 183.360 C 139.200 183.009,139.740 182.217,140.400 181.600 C 141.060 180.983,141.600 180.231,141.600 179.928 C 141.600 179.625,141.960 179.117,142.400 178.800 C 142.840 178.483,143.200 177.903,143.200 177.512 C 143.200 177.120,143.380 176.800,143.600 176.800 C 143.820 176.800,144.000 176.440,144.000 176.000 C 144.000 175.560,144.180 175.200,144.400 175.200 C 144.620 175.200,144.800 174.840,144.800 174.400 C 144.800 173.960,144.980 173.600,145.200 173.600 C 145.420 173.600,145.600 173.240,145.600 172.800 C 145.600 172.360,145.780 172.000,146.000 172.000 C 146.220 172.000,146.400 171.640,146.400 171.200 C 146.400 170.760,146.580 170.400,146.800 170.400 C 147.020 170.400,147.200 170.040,147.200 169.600 C 147.200 169.160,147.380 168.800,147.600 168.800 C 147.820 168.800,148.000 168.440,148.000 168.000 C 148.000 167.560,148.180 167.200,148.400 167.200 C 148.620 167.200,148.800 166.880,148.800 166.488 C 148.800 166.097,149.160 165.517,149.600 165.200 C 150.040 164.883,150.400 164.303,150.400 163.912 C 150.400 163.520,150.580 163.200,150.800 163.200 C 151.020 163.200,151.200 162.840,151.200 162.400 C 151.200 161.960,151.380 161.600,151.600 161.600 C 151.820 161.600,152.000 161.240,152.000 160.800 C 152.000 160.360,152.180 160.000,152.400 160.000 C 152.620 160.000,152.800 159.640,152.800 159.200 C 152.800 158.760,152.980 158.400,153.200 158.400 C 153.420 158.400,153.600 158.040,153.600 157.600 C 153.600 157.160,153.780 156.800,154.000 156.800 C 154.220 156.800,154.400 156.440,154.400 156.000 C 154.400 155.560,154.580 155.200,154.800 155.200 C 155.020 155.200,155.200 154.840,155.200 154.400 C 155.200 153.960,155.380 153.600,155.600 153.600 C 155.820 153.600,156.000 153.240,156.000 152.800 C 156.000 152.360,156.180 152.000,156.400 152.000 C 156.620 152.000,156.800 151.680,156.800 151.288 C 156.800 150.897,157.160 150.317,157.600 150.000 C 158.040 149.683,158.400 149.103,158.400 148.712 C 158.400 148.320,158.580 148.000,158.800 148.000 C 159.020 148.000,159.200 147.640,159.200 147.200 C 159.200 146.760,159.380 146.400,159.600 146.400 C 159.820 146.400,160.000 146.040,160.000 145.600 C 160.000 145.160,160.180 144.800,160.400 144.800 C 160.620 144.800,160.800 144.440,160.800 144.000 C 160.800 143.560,160.980 143.200,161.200 143.200 C 161.420 143.200,161.600 142.840,161.600 142.400 C 161.600 141.960,161.780 141.600,162.000 141.600 C 162.220 141.600,162.400 141.240,162.400 140.800 C 162.400 140.360,162.580 140.000,162.800 140.000 C 163.020 140.000,163.200 139.640,163.200 139.200 C 163.200 138.760,163.380 138.400,163.600 138.400 C 163.820 138.400,164.000 138.040,164.000 137.600 C 164.000 137.160,164.180 136.800,164.400 136.800 C 164.620 136.800,164.800 136.512,164.800 136.160 C 164.800 135.809,165.340 135.017,166.000 134.400 C 166.660 133.783,167.200 132.991,167.200 132.640 C 167.200 132.288,167.380 132.000,167.600 132.000 C 167.820 132.000,168.000 131.640,168.000 131.200 C 168.000 130.760,168.180 130.400,168.400 130.400 C 168.620 130.400,168.800 130.040,168.800 129.600 C 168.800 129.160,168.980 128.800,169.200 128.800 C 169.420 128.800,169.600 128.440,169.600 128.000 C 169.600 127.560,169.780 127.200,170.000 127.200 C 170.220 127.200,170.400 126.840,170.400 126.400 C 170.400 125.960,170.580 125.600,170.800 125.600 C 171.020 125.600,171.200 125.240,171.200 124.800 C 171.200 124.360,171.380 124.000,171.600 124.000 C 171.820 124.000,172.000 123.680,172.000 123.288 C 172.000 122.897,172.360 122.317,172.800 122.000 C 173.240 121.683,173.600 121.103,173.600 120.712 C 173.600 120.320,173.780 120.000,174.000 120.000 C 174.220 120.000,174.400 119.640,174.400 119.200 C 174.400 118.760,174.580 118.400,174.800 118.400 C 175.020 118.400,175.200 118.040,175.200 117.600 C 175.200 117.160,175.380 116.800,175.600 116.800 C 175.820 116.800,176.000 116.260,176.000 115.600 C 176.000 114.940,176.180 114.400,176.400 114.400 C 176.620 114.400,176.800 114.040,176.800 113.600 C 176.800 113.160,176.980 112.800,177.200 112.800 C 177.420 112.800,177.600 112.440,177.600 112.000 C 177.600 111.560,177.780 111.200,178.000 111.200 C 178.220 111.200,178.400 110.880,178.400 110.488 C 178.400 110.097,178.760 109.517,179.200 109.200 C 179.640 108.883,180.000 108.343,180.000 108.000 C 180.000 107.657,180.360 107.117,180.800 106.800 C 181.240 106.483,181.600 105.903,181.600 105.512 C 181.600 105.120,181.780 104.800,182.000 104.800 C 182.220 104.800,182.400 104.440,182.400 104.000 C 182.400 103.560,182.580 103.200,182.800 103.200 C 183.020 103.200,183.200 102.840,183.200 102.400 C 183.200 101.960,183.380 101.600,183.600 101.600 C 183.820 101.600,184.000 101.240,184.000 100.800 C 184.000 100.360,184.180 100.000,184.400 100.000 C 184.620 100.000,184.800 99.680,184.800 99.288 C 184.800 98.897,185.160 98.317,185.600 98.000 C 186.040 97.683,186.400 97.103,186.400 96.712 C 186.400 96.320,186.580 96.000,186.800 96.000 C 187.020 96.000,187.200 95.640,187.200 95.200 C 187.200 94.760,187.380 94.400,187.600 94.400 C 187.820 94.400,188.000 94.080,188.000 93.688 C 188.000 93.297,188.360 92.717,188.800 92.400 C 189.240 92.083,189.600 91.503,189.600 91.112 C 189.600 90.720,189.780 90.400,190.000 90.400 C 190.220 90.400,190.400 90.040,190.400 89.600 C 190.400 89.160,190.580 88.800,190.800 88.800 C 191.020 88.800,191.200 88.440,191.200 88.000 C 191.200 87.560,191.380 87.200,191.600 87.200 C 191.820 87.200,192.000 86.840,192.000 86.400 C 192.000 85.960,192.180 85.600,192.400 85.600 C 192.620 85.600,192.800 85.240,192.800 84.800 C 192.800 84.360,192.980 84.000,193.200 84.000 C 193.420 84.000,193.600 83.716,193.600 83.369 C 193.600 83.021,194.320 82.046,195.200 81.200 C 196.080 80.354,196.800 79.379,196.800 79.031 C 196.800 78.684,196.980 78.400,197.200 78.400 C 197.420 78.400,197.600 78.040,197.600 77.600 C 197.600 76.889,197.867 76.800,200.000 76.800 C 202.133 76.800,202.400 76.889,202.400 77.600 " stroke="none" fill="#241c1c" fill-rule="evenodd"></path></g></svg>