<?xml version="1.0" standalone="no"?>
<!DOCTYPE svg PUBLIC "-//W3C//DTD SVG 20010904//EN"
 "http://www.w3.org/TR/2001/REC-SVG-20010904/DTD/svg10.dtd">
<svg version="1.0" xmlns="http://www.w3.org/2000/svg"
 width="500.000000pt" height="180.000000pt" viewBox="0 0 500.000000 180.000000"
 preserveAspectRatio="xMidYMid meet">
<metadata>
Created by potrace 1.10, written by Peter Selinger 2001-2011
</metadata>
<g transform="translate(0.000000,180.000000) scale(0.100000,-0.100000)"
fill="#34373a" stroke="none">
<path d="M1101 1698 c-25 -13 -85 -62 -135 -109 l-90 -86 -74 74 c-95 94 -160
133 -225 133 -56 0 -88 -18 -128 -74 -43 -58 -40 -115 6 -172 19 -23 35 -44
35 -47 0 -3 -51 -7 -113 -9 -172 -6 -177 -12 -177 -219 l0 -119 310 0 310 0 0
158 c0 172 3 182 55 182 52 0 55 -10 55 -182 l0 -158 308 2 307 3 0 148 c0
192 6 186 -184 187 l-134 0 43 29 c77 51 85 89 40 168 -57 100 -130 131 -209
91z m113 -59 c61 -48 70 -126 18 -153 -34 -18 -273 -26 -279 -10 -2 6 31 39
73 75 42 35 84 71 93 80 33 33 60 36 95 8z m-563 -21 c68 -49 158 -122 158
-129 1 -3 -5 -12 -11 -21 -11 -13 -28 -14 -139 -4 -79 7 -132 16 -143 25 -33
27 -37 48 -20 91 31 77 83 90 155 38z"/>
<path d="M2132 1536 c-83 -21 -197 -82 -251 -135 -67 -65 -106 -130 -138 -226
-23 -69 -26 -97 -27 -205 0 -111 3 -134 28 -204 88 -257 301 -382 618 -362 99
6 203 24 271 48 l39 13 3 126 c5 153 18 194 67 207 30 7 33 12 36 50 l3 42
-231 0 -231 0 3 -37 c3 -37 4 -38 48 -43 91 -11 113 -44 108 -161 l-3 -74 -40
-13 c-22 -8 -74 -16 -115 -19 -171 -12 -308 75 -371 237 -16 40 -23 86 -26
171 -11 236 39 358 172 426 43 23 66 27 171 31 150 6 216 -10 263 -63 17 -20
31 -42 31 -50 0 -11 12 -15 43 -15 l43 0 12 89 c7 48 12 93 12 98 0 13 -39 30
-120 55 -84 26 -337 34 -418 14z"/>
<path d="M2902 1508 c3 -30 7 -33 47 -40 58 -10 78 -30 90 -89 14 -64 15 -761
1 -810 -15 -53 -44 -79 -89 -79 -41 0 -51 -11 -51 -56 l0 -24 239 0 c153 0
242 4 246 10 4 6 4 24 0 40 -6 27 -11 30 -45 30 -52 0 -86 40 -95 112 -4 29
-5 220 -3 425 3 359 4 372 24 400 14 19 35 31 65 37 48 10 59 20 59 54 l0 22
-246 0 -245 0 3 -32z"/>
<path d="M3530 1505 c0 -32 2 -35 30 -35 43 0 84 -23 99 -56 16 -36 27 -509
16 -717 -7 -137 -9 -150 -31 -177 -19 -22 -35 -30 -67 -32 -41 -3 -42 -4 -45
-40 l-3 -38 251 0 251 0 -3 38 c-3 37 -4 37 -53 42 -61 7 -68 11 -89 54 -13
28 -16 69 -16 220 l0 186 94 0 c120 0 143 -8 152 -55 6 -32 9 -35 43 -35 l36
0 0 145 0 145 -36 0 c-33 0 -37 -3 -43 -30 -8 -41 -36 -50 -152 -50 l-94 0 2
163 3 162 158 3 c156 2 158 2 182 -22 14 -14 25 -34 25 -46 0 -17 6 -20 39
-20 38 0 38 0 45 46 3 26 6 78 6 115 l0 69 -400 0 -400 0 0 -35z"/>
<path d="M267 1003 c-4 -3 -7 -163 -7 -355 0 -335 1 -349 20 -368 19 -19 33
-20 280 -20 l260 0 -2 373 -3 372 -271 3 c-149 1 -273 -1 -277 -5z"/>
<path d="M930 635 l0 -375 258 0 c141 0 263 4 270 9 26 16 32 89 32 414 l0
327 -280 0 -280 0 0 -375z"/>
</g>
</svg>
