<?xml version="1.0" standalone="no"?>
<!DOCTYPE svg PUBLIC "-//W3C//DTD SVG 20010904//EN"
 "http://www.w3.org/TR/2001/REC-SVG-20010904/DTD/svg10.dtd">
<svg version="1.0" xmlns="http://www.w3.org/2000/svg"
 width="300.000000pt" height="108.000000pt" viewBox="0 0 300.000000 108.000000"
 preserveAspectRatio="xMidYMid meet">
<metadata>
Created by potrace 1.10, written by Peter Selinger 2001-2011
</metadata>
<g transform="translate(0.000000,108.000000) scale(0.100000,-0.100000)"
fill="#34373a" stroke="none">
<path d="M667 950 c-48 -50 -92 -90 -97 -90 -6 0 -10 10 -10 23 0 26 -40 67
-66 67 -11 1 -30 14 -44 30 -20 25 -31 30 -68 30 -38 0 -50 -5 -83 -39 -49
-49 -52 -86 -9 -121 49 -41 40 -50 -52 -50 -75 0 -85 -3 -106 -25 -20 -21 -23
-32 -20 -102 l3 -78 205 0 205 0 3 103 3 102 44 0 44 0 3 -102 3 -103 205 0
205 0 3 78 c3 70 0 81 -20 102 -21 23 -30 25 -120 25 -80 0 -98 3 -98 15 0 9
9 15 23 15 44 1 88 73 52 86 -8 4 -15 15 -15 26 0 23 -70 98 -91 98 -8 -1 -53
-41 -102 -90z m-203 -36 c37 -36 66 -69 66 -75 0 -16 -87 -11 -94 6 -4 11 -21
15 -61 15 l-55 0 0 40 c0 45 23 78 57 79 14 1 45 -22 87 -65z m346 46 c13 -13
20 -33 20 -60 l0 -40 -55 0 c-40 0 -57 -4 -61 -15 -7 -17 -94 -22 -94 -6 0 6
28 39 63 74 67 70 94 80 127 47z"/>
<path d="M1430 895 c-183 -35 -300 -181 -300 -378 0 -154 73 -279 200 -340 58
-28 76 -32 174 -35 100 -4 128 0 237 29 l36 9 -5 49 c-7 74 14 147 50 172 19
14 28 28 26 43 -3 21 -6 21 -148 17 -140 -3 -165 -9 -157 -36 2 -5 14 -12 28
-13 46 -7 69 -40 69 -98 0 -49 -2 -55 -30 -69 -72 -37 -192 -11 -261 57 -62
62 -74 100 -73 233 0 107 3 125 25 165 14 25 43 57 69 75 43 29 49 30 153 30
l109 0 36 -43 c23 -26 45 -42 59 -42 24 0 27 7 37 87 6 41 5 43 -31 61 -31 16
-195 45 -229 41 -5 -1 -38 -7 -74 -14z"/>
<path d="M1925 881 c-3 -5 13 -20 34 -32 63 -35 66 -51 66 -334 0 -281 -4
-299 -66 -319 -24 -8 -34 -17 -34 -31 0 -19 7 -20 150 -22 85 -2 157 1 165 7
21 13 1 44 -32 48 -14 2 -31 15 -41 32 -15 24 -17 63 -17 297 0 300 -5 278 73
327 15 9 25 21 22 26 -8 13 -312 13 -320 1z"/>
<path d="M2347 883 c-14 -14 -6 -24 32 -39 25 -10 43 -25 51 -43 7 -19 10
-111 8 -293 -3 -294 -4 -299 -69 -312 -32 -6 -41 -39 -13 -50 20 -8 288 -8
308 0 9 3 16 14 16 24 0 19 -19 30 -54 30 -42 0 -56 45 -56 179 l0 121 70 0
c65 0 71 -2 82 -25 12 -26 45 -43 57 -28 3 4 5 50 3 101 -4 100 -14 114 -50
67 -18 -22 -27 -25 -91 -25 l-72 0 3 103 3 102 95 3 c116 4 138 -1 142 -31 2
-16 10 -22 28 -22 24 0 25 4 31 65 3 36 4 68 2 73 -5 9 -517 10 -526 0z"/>
<path d="M177 524 c-4 -4 -7 -109 -7 -233 0 -292 -14 -273 202 -269 l153 3 0
250 0 250 -171 3 c-93 1 -173 -1 -177 -4z"/>
<path d="M625 518 c-3 -8 -4 -121 -3 -253 l3 -240 154 -3 c150 -2 154 -2 177
22 l24 24 -2 228 -3 229 -173 3 c-134 2 -174 0 -177 -10z"/>
</g>
</svg>
